<?xml version="1.0" encoding="UTF-8" standalone="no"?>
<!DOCTYPE svg PUBLIC "-//W3C//DTD SVG 1.1//EN" "http://www.w3.org/Graphics/SVG/1.1/DTD/svg11.dtd">
<svg width="70px" height="70px" viewBox="0 0 251 233" version="1.1" xmlns="http://www.w3.org/2000/svg" xmlns:xlink="http://www.w3.org/1999/xlink" xml:space="preserve" xmlns:serif="http://www.serif.com/" style="fill-rule:evenodd;clip-rule:evenodd;">
    <g id="Artboard1" transform="matrix(1,0,0,1.02702,-474.457,-280.518)">
        <rect x="474.457" y="273.138" width="250.217" height="226.071" style="fill:none;"/>
        <g transform="matrix(1,0,0,0.973692,567.184,110.584)">
            <path d="M149.892,385.188C147.927,384.116 130.23,366.726 113.818,366.726C105.285,366.726 98.593,369.301 92.694,371.574C86.71,373.879 81.059,376.054 72.881,376.054C63.349,376.054 55.436,373.144 48.451,370.579C42.82,368.514 37.956,366.726 32.979,366.726C28.005,366.726 23.141,368.514 17.509,370.579C10.528,373.144 2.613,376.054 -6.919,376.054C-15.099,376.054 -20.749,373.879 -26.732,371.574C-32.633,369.301 -39.323,366.726 -47.855,366.726C-64.27,366.726 -81.968,384.116 -83.931,385.188C-83.931,385.188 -76.786,380.718 -70.138,380.718C-63.487,380.718 -57.728,385.382 -47.854,385.382C-42.789,385.382 -38.661,386.97 -33.432,388.982C-26.808,391.535 -18.566,394.706 -6.918,394.706C5.934,394.706 16.343,390.884 23.944,388.094C27.404,386.822 31.324,385.381 32.98,385.381C34.642,385.381 38.559,386.822 42.019,388.094C49.621,390.884 60.029,394.706 72.882,394.706C84.528,394.706 92.773,391.536 99.397,388.982C104.623,386.97 108.752,385.382 113.82,385.382C123.693,385.382 131.176,380.718 136.1,380.718C141.025,380.718 149.975,385.185 149.975,385.185L149.892,385.188Z" style="fill:rgb(32,32,30);fill-rule:nonzero;"/>
            <path d="M95.684,278.504C95.684,249.074 70.573,202.422 51.353,196.115C50.685,195.895 49.996,195.711 49.29,195.563C52.641,194.32 55.038,191.105 55.038,187.32C55.038,182.462 51.098,178.527 46.245,178.527C41.391,178.527 37.448,182.463 37.448,187.32C37.448,190.695 39.355,193.618 42.144,195.096C38.204,195.351 33.947,196.376 29.561,198.142C26.763,196.87 23.98,195.959 21.238,195.46C24.445,194.15 26.71,190.997 26.71,187.32C26.71,182.462 22.774,178.527 17.917,178.527C13.06,178.527 9.124,182.463 9.124,187.32C9.124,190.75 11.093,193.718 13.96,195.167C12.471,195.331 11.006,195.64 9.572,196.114C-9.602,202.424 -34.155,247.348 -34.155,278.504C-34.155,303.35 -24.088,324.755 -12.469,340.249C-10.739,344.842 -8.109,344.977 -7.541,345.546C-7.539,345.546 -7.538,345.543 -7.536,345.543C-7.547,345.62 -9.839,360.517 -10.063,363.882C-10.409,369.068 -10.931,375.194 -10.931,375.194C1.747,380.771 15.639,384.009 30.73,384.009C45.824,384.009 59.031,380.457 71.704,374.884C71.253,370.739 70.735,366.598 69.698,360.376C69.157,357.123 67.295,345.537 67.295,345.537C67.861,344.975 71.28,340.686 71.28,340.686C83.613,325.112 95.662,304.348 95.662,278.519L95.684,278.504Z" style="fill:white;fill-rule:nonzero;stroke:rgb(32,32,30);stroke-width:4.15px;"/>
            <path d="M-7.224,345.548C3.058,341.117 14.88,337.234 30.199,337.234C45.513,337.234 57.331,341.114 67.612,345.538C68.176,344.976 69.52,343.535 72.296,339.648C63.646,330.287 51.057,325.144 30.462,325.144C8.489,325.144 -3.506,330.877 -12.155,340.251C-10.393,344.812 -7.75,344.97 -7.184,345.536L-7.224,345.548Z" style="fill-rule:nonzero;stroke:black;stroke-width:1.68px;"/>
            <path d="M71.365,374.869C58.686,369.299 45.719,366.537 30.627,366.537C15.534,366.537 1.407,369.609 -11.27,375.179C1.406,380.756 15.298,383.994 30.39,383.994C45.492,383.994 58.705,380.439 71.384,374.87L71.365,374.869Z" style="fill:white;fill-rule:nonzero;stroke:black;stroke-width:3.19px;stroke-linejoin:bevel;"/>
            <path d="M71.019,340.671C79.004,327.325 89.51,302.153 76.382,259.316C65.367,223.375 32.916,188.306 9.31,196.099C-11.626,203.012 -34.417,252.518 -34.417,278.489C-34.417,303.335 -24.354,324.739 -12.735,340.234L71.045,340.643L71.019,340.671Z" style="fill-rule:nonzero;stroke:black;stroke-width:1.68px;"/>
            <circle cx="17.661" cy="187.299" r="8.794" style="stroke:black;stroke-width:1.68px;"/>
            <path d="M67.024,345.516L67.02,345.507C56.739,341.086 44.912,337.381 29.607,337.381C14.29,337.381 2.478,341.089 -7.806,345.516C-7.806,345.516 -10.111,360.488 -10.335,363.861C-10.68,369.047 -11.201,375.173 -11.201,375.173C1.474,369.603 15.605,366.531 30.692,366.531C45.495,366.531 58.935,369.492 71.431,374.863C70.981,370.718 70.462,366.577 69.426,360.355C68.86,357.083 67.004,345.474 67.004,345.474L67.024,345.516Z" style="fill-rule:nonzero;stroke:black;stroke-width:1.68px;stroke-linejoin:bevel;"/>
            <path d="M66.646,365.588C55.249,362.049 43.081,360.104 30.526,360.104C17.757,360.104 4.707,362.184 -6.998,365.858" style="fill:none;fill-rule:nonzero;stroke:white;stroke-width:1.68px;stroke-linecap:round;stroke-linejoin:bevel;"/>
            <g>
                <path d="M-4.55,344.163C4.973,340.329 15.892,337.21 29.616,337.21C43.414,337.21 54.372,340.363 63.931,344.221" style="fill:none;fill-rule:nonzero;stroke:white;stroke-width:1.68px;stroke-linecap:round;"/>
                <path d="M70.138,337.399C58.05,327.731 48.377,325.14 30.475,325.14C15.482,325.14 0.012,329.11 -7.4,335.9" style="fill:none;fill-rule:nonzero;stroke:white;stroke-width:1.68px;stroke-linecap:round;"/>
            </g>
            <path d="M51.482,262.145L47.392,266.266L26.691,266.266L26.691,247.578L30.812,243.457L22.506,235.151L14.201,243.457L18.354,247.61L18.354,266.266L-2.474,266.266L-6.595,262.145L-14.901,270.45L-6.595,278.756L-2.411,274.603L18.354,274.603L18.354,297.381L14.201,301.534L22.506,309.839L30.812,301.534L26.691,297.412L26.691,274.603L47.329,274.603L51.482,278.756L59.788,270.45L51.482,262.145Z" style="fill:white;fill-rule:nonzero;stroke:black;stroke-width:1.68px;"/>
        </g>
    </g>
</svg>
