<?xml version="1.0" encoding="UTF-8" standalone="no"?>
<!DOCTYPE svg PUBLIC "-//W3C//DTD SVG 1.1//EN" "http://www.w3.org/Graphics/SVG/1.1/DTD/svg11.dtd">
<svg width="70px" height="70px" viewBox="0 0 236 222" version="1.1" xmlns="http://www.w3.org/2000/svg" xmlns:xlink="http://www.w3.org/1999/xlink" xml:space="preserve" xmlns:serif="http://www.serif.com/" style="fill-rule:evenodd;clip-rule:evenodd;">
    <g id="Artboard1" transform="matrix(1,0,0,1,-1216.47,-273.119)">
        <rect x="1216.46" y="273.119" width="235.328" height="221.19" style="fill:none;"/>
        <g transform="matrix(1,0,0,1,567.193,103.119)">
            <path d="M713.577,204.854C713.577,204.854 717.067,186.098 717.067,183.48C717.067,180.865 719.681,180.427 722.299,183.918C724.917,187.408 736.693,204.416 736.693,204.416L713.569,204.825L713.577,204.854Z" style="fill:rgb(32,32,30);fill-rule:nonzero;stroke:rgb(32,32,30);stroke-width:2.68px;"/>
            <path d="M870.032,348.725C868.849,340.27 867.23,332.208 865.263,324.543L858.944,322.017L863.165,316.969C860.759,308.861 857.964,301.226 854.894,294.051L848.915,292.358L851.904,287.261C848.691,280.436 845.24,274.069 841.655,268.141L836.082,267.023L838.082,262.419C834.066,256.223 829.937,250.562 825.841,245.425L819.943,244.778L821.519,240.182C816.732,234.558 812.065,229.666 807.748,225.486L801.84,225.154L802.872,220.925C792.347,211.396 784.902,206.761 784.902,206.761L771.528,210.832C771.528,210.832 765.132,207.34 759.899,203.853C759.899,203.853 756.409,192.223 755.251,185.825C754.083,179.431 750.593,182.339 749.435,184.079C748.268,185.825 736.203,199.2 736.203,199.2C736.203,199.2 728.985,198.211 723.849,199.2C716.288,200.655 712.797,205.744 704.075,214.032C697.709,220.072 693.893,225.372 691.718,231.039C689.537,236.709 692.151,236.709 691.282,241.941C690.406,247.178 666.854,286.43 664.242,291.228C661.621,296.026 655.301,310.696 667.729,320.015C671.213,322.632 673.834,323.944 676.012,324.811C676.012,324.811 679.502,323.944 680.811,322.199C681.042,321.886 681.164,321.692 681.223,321.588C681.263,321.468 681.284,321.465 681.223,321.588C681.088,321.929 680.78,323.204 682.12,324.81C684.301,327.428 687.104,327.238 688.664,327.428C690.987,327.723 695.202,325.686 698.696,320.451C702.183,315.218 704.364,313.47 706.982,310.419C709.596,307.365 724.033,300.611 729.665,291.228C730.971,289.051 734.025,289.921 736.203,291.666C738.384,293.411 750.594,293.85 755.829,285.123C755.829,285.123 758.302,308.066 747.976,323.943C730.971,350.107 702.182,356.649 693.458,381.076L872.281,381.076C872.281,372.633 871.836,364.528 871.031,356.736L865.083,353.597L870.117,348.72L870.032,348.725Z" style="fill:rgb(32,32,30);fill-rule:nonzero;stroke:rgb(32,32,30);stroke-width:2.68px;"/>
            <path d="M777.914,216.684C777.914,216.684 854.09,273.675 854.09,376.606" style="fill:none;fill-rule:nonzero;stroke:white;stroke-width:2.68px;"/>
            <path d="M681.203,320.945C681.266,320.851 681.235,320.851 681.203,320.945Z" style="fill:none;fill-rule:nonzero;stroke:rgb(32,32,30);stroke-width:2.68px;"/>
            <path d="M762.215,256.23C763.665,272.509 756.107,284.141 755.818,285.157C755.818,285.157 774.139,275.71 775.884,263.204" style="fill:none;fill-rule:nonzero;stroke:white;stroke-width:2.68px;"/>
            <path d="M755.797,285.143C755.797,285.143 768.01,291.106 777.024,287.325" style="fill:none;fill-rule:nonzero;stroke:white;stroke-width:2.68px;"/>
            <path d="M680.794,321.574C680.794,321.574 688.936,311.104 691.265,306.308" style="fill:none;fill-rule:nonzero;stroke:rgb(32,32,30);stroke-width:2.68px;"/>
            <path d="M730.943,224.958C730.943,224.958 717.532,225.022 713.059,232.368C706.954,242.403 713.934,243.71 713.934,243.71C713.934,243.71 720.908,245.893 725.707,239.35C730.817,232.384 726.577,228.009 726.577,228.009L730.918,224.957L730.943,224.958Z" style="fill:none;fill-rule:nonzero;stroke:white;stroke-width:2.68px;"/>
            <path d="M665.976,298.891C670.772,297.584 673.823,298.018 676.001,299.33C676.001,299.33 673.823,292.786 677.746,287.115C681.676,281.445 688.22,281.012 693.882,270.109" style="fill:none;fill-rule:nonzero;stroke:white;stroke-width:2.68px;"/>
            <path d="M793.299,231.061L801.604,225.839" style="fill:none;fill-rule:nonzero;stroke:white;stroke-width:2.68px;"/>
            <path d="M810.319,249.812L818.625,245.911" style="fill:none;fill-rule:nonzero;stroke:white;stroke-width:2.68px;"/>
            <path d="M825.577,271.583L835.173,267.65" style="fill:none;fill-rule:nonzero;stroke:white;stroke-width:2.68px;"/>
            <path d="M837.816,296.5L847.82,293.008" style="fill:none;fill-rule:nonzero;stroke:white;stroke-width:2.68px;"/>
            <path d="M847.38,325.727L857.856,322.675" style="fill:none;fill-rule:nonzero;stroke:white;stroke-width:2.68px;"/>
            <path d="M853.074,355.363L863.96,354.073" style="fill:none;fill-rule:nonzero;stroke:white;stroke-width:2.68px;"/>
        </g>
    </g>
</svg>
