<?xml version="1.0" encoding="UTF-8" standalone="no"?>
<!DOCTYPE svg PUBLIC "-//W3C//DTD SVG 1.1//EN" "http://www.w3.org/Graphics/SVG/1.1/DTD/svg11.dtd">
<svg width="70px" height="70px" viewBox="0 0 141 209" version="1.1" xmlns="http://www.w3.org/2000/svg" xmlns:xlink="http://www.w3.org/1999/xlink" xml:space="preserve" xmlns:serif="http://www.serif.com/" style="fill-rule:evenodd;clip-rule:evenodd;stroke-linejoin:round;">
    <g id="Artboard1" transform="matrix(1,0,0,1,-1499.05,-292.218)">
        <rect x="1499.05" y="292.218" width="140.006" height="208.261" style="fill:none;"/>
        <g transform="matrix(1,0,0,1,566.778,103.218)">
            <path d="M1026.33,362.379C1014.53,338.959 1015.72,297.239 1016.71,281.075C1035.37,279.795 1048.79,276.262 1048.79,272.097C1048.79,268.01 1035.87,264.527 1017.75,263.191C1029.32,257.227 1037.24,245.173 1037.24,231.261C1037.24,211.426 1021.17,195.348 1001.34,195.348C981.5,195.348 965.429,211.426 965.429,231.261C965.429,245.173 973.349,257.227 984.917,263.191C966.802,264.527 953.88,268.009 953.88,272.097C953.88,276.262 967.306,279.795 985.961,281.075C986.95,297.241 988.142,338.96 976.344,362.379C953.222,367.027 936.996,377.941 936.996,390.651L1065.67,390.651C1065.67,377.941 1049.47,367.024 1026.35,362.367L1026.33,362.379Z" style="fill-rule:nonzero;stroke:black;stroke-width:2.48px;"/>
        </g>
    </g>
</svg>
