<?xml version="1.0" encoding="UTF-8" standalone="no"?>
<!DOCTYPE svg PUBLIC "-//W3C//DTD SVG 1.1//EN" "http://www.w3.org/Graphics/SVG/1.1/DTD/svg11.dtd">
<svg width="70px" height="70px" viewBox="0 0 243 213" version="1.1" xmlns="http://www.w3.org/2000/svg" xmlns:xlink="http://www.w3.org/1999/xlink" xml:space="preserve" xmlns:serif="http://www.serif.com/" style="fill-rule:evenodd;clip-rule:evenodd;stroke-linejoin:bevel;">
    <g id="Artboard1" transform="matrix(1,0,0,1,-953.668,-284.766)">
        <rect x="953.668" y="284.766" width="242.231" height="212.791" style="fill:none;"/>
        <g transform="matrix(1,0,0,1,567.395,103.766)">
            <path d="M618.124,239.776C620.8,235.183 619.255,229.29 614.662,226.612C610.078,223.933 604.185,225.482 601.506,230.073C599.208,234.009 600.025,238.893 603.193,241.896C590.086,257.786 566.169,286.772 560.39,293.8C558.694,293.044 556.937,292.324 555.112,291.649C555.628,286.262 559.416,245.116 561.429,223.235C565.794,223.334 569.819,220.443 570.962,216.033C572.292,210.887 569.202,205.638 564.059,204.304C558.909,202.974 553.662,206.065 552.329,211.209C551.189,215.617 553.302,220.098 557.171,222.133C547.692,243.64 529.301,285.392 529.255,285.565C529.246,285.606 529.252,285.649 529.243,285.691C527.572,285.489 525.854,285.316 524.109,285.171C523.759,282.858 515.872,234.46 511.758,209.253C516.484,208.149 520.008,203.919 520.008,198.856C520.008,192.95 515.221,188.161 509.313,188.161C503.411,188.161 498.621,192.95 498.621,198.856C498.621,203.919 502.148,208.148 506.873,209.253C502.781,234.345 494.943,282.415 494.532,285.13C492.701,285.275 490.916,285.453 489.167,285.654C489.155,285.594 489.158,285.544 489.14,285.487C489.097,285.315 470.702,243.559 461.231,222.052C465.095,220.023 467.209,215.54 466.07,211.13C464.736,205.987 459.485,202.896 454.339,204.228C449.199,205.56 446.105,210.811 447.439,215.954C448.582,220.365 452.603,223.255 456.969,223.154C458.979,245.012 462.755,286.072 463.286,291.55C461.492,292.2 459.771,292.9 458.1,293.634C452.093,286.333 428.442,257.665 415.43,241.9C418.603,238.897 419.424,234.013 417.126,230.078C414.45,225.486 408.554,223.937 403.964,226.617C399.377,229.294 397.828,235.187 400.507,239.78C402.802,243.711 407.46,245.404 411.635,244.118C419.461,264.499 444.72,330.095 445.686,330.998L445.695,330.998C445.713,331.111 448.196,347.382 448.469,352.777C448.743,358.145 446.408,371.276 446.577,371.353L446.577,371.365C446.58,371.365 446.583,371.359 446.586,371.359C465.318,380.131 486.651,385.062 509.53,385.062C532.621,385.062 574.304,370.941 574.109,370.849C571.384,365.098 572.413,330.991 572.413,330.991C573.378,330.079 598.968,265.034 606.998,244.118C611.12,245.408 615.776,243.709 618.073,239.777" style="fill-rule:nonzero;stroke:black;stroke-width:2.68px;"/>
            <g>
                <path d="M451.224,367.444C470.921,359.327 489.358,355.843 511.95,355.843C533.647,355.843 551.015,359.435 569.174,366.959" style="fill-rule:nonzero;stroke:white;stroke-width:2.91px;stroke-linecap:round;stroke-linejoin:miter;"/>
                <path d="M565.427,329.408C549.405,323.251 529.776,319.629 508.571,319.629C487.175,319.629 467.389,323.316 451.29,329.571" style="fill-rule:nonzero;stroke:white;stroke-width:2.91px;stroke-linecap:round;stroke-linejoin:miter;"/>
            </g>
            <path d="M567.346,356.213C549.613,350.354 531.56,346.102 511.233,346.102C490.522,346.102 470.563,350.476 451.85,356.548" style="fill:none;fill-rule:nonzero;stroke:white;stroke-width:2.91px;stroke-linecap:round;stroke-linejoin:miter;"/>
            <path d="M500.46,334.316L509.395,338.783L518.362,334.316L509.395,329.848L500.46,334.316Z" style="fill:white;fill-rule:nonzero;"/>
            <path d="M554.919,340.136L545.387,343.125L537.27,337.273L546.802,334.284L554.919,340.136Z" style="fill:white;fill-rule:nonzero;"/>
            <path d="M463.903,340.136L473.436,343.125L481.552,337.273L472.02,334.284L463.903,340.136Z" style="fill:white;fill-rule:nonzero;"/>
        </g>
    </g>
</svg>
