<?xml version="1.0" encoding="UTF-8" standalone="no"?>
<!DOCTYPE svg PUBLIC "-//W3C//DTD SVG 1.1//EN" "http://www.w3.org/Graphics/SVG/1.1/DTD/svg11.dtd">
<svg width="70px" height="70px" viewBox="0 0 256 239" version="1.1" xmlns="http://www.w3.org/2000/svg" xmlns:xlink="http://www.w3.org/1999/xlink" xml:space="preserve" xmlns:serif="http://www.serif.com/" style="fill-rule:evenodd;clip-rule:evenodd;stroke-linecap:round;stroke-linejoin:round;">
    <g id="Artboard1" transform="matrix(1,0,0,1,-468.808,-4.32748)">
        <rect x="468.808" y="4.327" width="255.967" height="238.04" style="fill:none;"/>
        <clipPath id="_clip1">
            <rect x="468.808" y="4.327" width="255.967" height="238.04"/>
        </clipPath>
        <g clip-path="url(#_clip1)">
            <g transform="matrix(1,0,0,1,567.535,103.327)">
                <path d="M146.62,115.065C144.655,113.994 126.958,96.605 110.543,96.605C102.011,96.605 95.32,99.181 89.419,101.451C83.436,103.755 77.786,105.932 69.607,105.932C60.075,105.932 52.162,103.024 45.176,100.458C39.546,98.391 34.681,96.604 29.705,96.604C24.731,96.604 19.869,98.391 14.237,100.458C7.255,103.024 -0.659,105.932 -10.193,105.932C-18.371,105.932 -24.023,103.755 -30.006,101.451C-35.907,99.181 -42.598,96.605 -51.132,96.605C-67.544,96.605 -85.241,113.994 -87.205,115.065C-87.205,115.065 -79.673,110.596 -73.411,110.596C-67.15,110.596 -61.004,115.258 -51.131,115.258C-46.063,115.258 -41.935,116.848 -36.706,118.862C-30.082,121.412 -21.839,124.586 -10.192,124.586C2.659,124.586 13.069,120.764 20.67,117.973C24.131,116.699 28.05,115.258 29.706,115.258C31.368,115.258 35.286,116.699 38.745,117.973C46.346,120.764 56.755,124.586 69.608,124.586C81.253,124.586 89.497,121.412 96.123,118.862C101.347,116.848 105.478,115.258 110.544,115.258C120.419,115.258 124.491,110.596 132.827,110.596C141.227,110.596 146.701,115.064 146.701,115.064L146.62,115.065Z" style="fill:white;fill-rule:nonzero;stroke:rgb(32,32,30);stroke-width:4.15px;"/>
                <path d="M47.801,-74.003C47.134,-74.221 46.445,-74.405 45.742,-74.553C49.091,-75.797 51.486,-79.01 51.486,-82.796C51.486,-87.653 47.55,-91.589 42.693,-91.589C37.836,-91.589 33.899,-87.653 33.899,-82.796C33.899,-79.42 35.8,-76.497 38.592,-75.019C13.352,-73.38 -24.963,-40.132 -26.183,16.161C-26.669,38.527 -23.833,56.836 -16.021,70.135L68.429,69.533C80.775,53.956 92.129,34.24 92.129,8.389C92.129,-26.005 67.024,-67.715 47.801,-74.027L47.801,-74.003Z" style="fill:white;fill-rule:nonzero;stroke:rgb(32,32,30);stroke-width:4.15px;stroke-linecap:butt;stroke-linejoin:miter;"/>
                <path d="M73.096,-10.782C63.811,-41.078 39.3,-70.737 17.687,-74.654C20.899,-75.964 23.16,-79.116 23.16,-82.794C23.16,-87.652 19.224,-91.587 14.367,-91.587C9.511,-91.587 5.573,-87.651 5.573,-82.794C5.573,-79.364 7.544,-76.396 10.412,-74.947C8.92,-74.784 7.456,-74.474 6.024,-74.001C-13.15,-67.69 -37.706,-25.293 -37.706,8.392C-37.706,33.238 -27.64,54.643 -16.022,70.137L68.429,69.535C76.42,56.196 86.204,32.034 73.085,-10.788L73.096,-10.782Z" style="fill:white;fill-rule:nonzero;stroke:rgb(32,32,30);stroke-width:4.15px;stroke-linecap:butt;stroke-linejoin:miter;"/>
                <path d="M68.156,104.777C57.544,99.909 42.511,96.444 27.424,96.444C12.329,96.444 -1.801,99.516 -14.476,105.089C-1.801,110.659 12.094,113.899 27.185,113.899C42.286,113.899 55.499,110.344 68.178,104.775L68.156,104.777Z" style="fill:white;fill-rule:nonzero;stroke:black;stroke-width:3.19px;stroke-linecap:butt;stroke-linejoin:bevel;"/>
                <path d="M63.752,75.424L63.744,75.413C53.462,70.994 41.634,67.289 26.331,67.289C11.014,67.289 -0.798,70.997 -11.083,75.424C-11.083,75.424 -13.387,90.393 -13.61,93.772C-13.957,98.954 -14.478,105.084 -14.478,105.084C-1.803,99.511 12.327,96.439 27.422,96.439C42.22,96.439 55.66,99.399 68.154,104.773C67.706,100.625 67.187,96.481 66.151,90.262C65.585,86.959 63.729,75.381 63.729,75.381L63.752,75.424Z" style="fill:white;fill-rule:nonzero;stroke:rgb(32,32,30);stroke-width:4.15px;stroke-linecap:butt;stroke-linejoin:bevel;"/>
                <path d="M-14.492,105.092C-1.817,99.518 12.313,96.446 27.408,96.446C42.206,96.446 55.646,99.406 68.14,104.78C67.819,101.31 67.051,99.147 66.567,94.718C54.012,90.32 41.283,88.076 27.213,88.076C12.983,88.076 -1.117,90.66 -13.793,95.153C-13.856,99.054 -14.517,105.095 -14.517,105.095L-14.492,105.092Z" style="fill:white;fill-rule:nonzero;stroke:rgb(32,32,30);stroke-width:4.15px;stroke-linecap:butt;stroke-linejoin:bevel;"/>
                <path d="M-11.094,75.424C-0.811,71 11.012,67.212 26.332,67.113C39.376,67.027 53.465,70.994 63.749,75.418C64.312,74.853 66.701,74.127 68.431,69.528C59.784,60.167 46.927,55.277 26.333,55.277C4.358,55.277 -7.374,60.756 -16.02,70.13C-14.321,74.723 -11.678,74.849 -11.112,75.416L-11.094,75.424Z" style="fill:white;fill-rule:nonzero;stroke:rgb(32,32,30);stroke-width:4.15px;stroke-linecap:butt;stroke-linejoin:miter;"/>
                <path d="M26.345,55.289L26.345,67.119" style="fill:none;fill-rule:nonzero;stroke:black;stroke-width:3.19px;stroke-linecap:butt;stroke-linejoin:miter;"/>
                <path d="M48.21,-7.979L44.089,-3.857L23.387,-3.857L23.387,-22.526L27.509,-26.648L19.203,-34.947L10.897,-26.648L15.05,-22.482L15.05,-3.857L-5.746,-3.857L-9.867,-7.979L-18.173,0.327L-9.867,8.633L-5.714,4.48L15.05,4.48L15.05,27.289L10.897,31.442L19.203,39.748L27.509,31.442L23.387,27.32L23.387,4.48L44.057,4.48L48.21,8.633L56.516,0.327L48.21,-7.979Z" style="fill:white;fill-rule:nonzero;stroke:black;stroke-width:2.42px;stroke-linecap:butt;stroke-linejoin:miter;"/>
            </g>
        </g>
    </g>
</svg>
