<?xml version="1.0" encoding="UTF-8" standalone="no"?>
<!DOCTYPE svg PUBLIC "-//W3C//DTD SVG 1.1//EN" "http://www.w3.org/Graphics/SVG/1.1/DTD/svg11.dtd">
<svg width="70px" height="70px" viewBox="0 0 239 217" version="1.1" xmlns="http://www.w3.org/2000/svg" xmlns:xlink="http://www.w3.org/1999/xlink" xml:space="preserve" xmlns:serif="http://www.serif.com/" style="fill-rule:evenodd;clip-rule:evenodd;">
    <g id="Artboard1" transform="matrix(1,0,0,1,-722.107,-10.1899)">
        <rect x="722.107" y="10.19" width="238.337" height="216.251" style="fill:none;"/>
        <clipPath id="_clip1">
            <rect x="722.107" y="10.19" width="238.337" height="216.251"/>
        </clipPath>
        <g clip-path="url(#_clip1)">
            <g transform="matrix(1,0,0,1,566.834,103.19)">
                <path d="M295.839,-84.13L245.19,-84.13L245.19,-31.197C245.19,-23.404 256.588,-17.079 270.641,-17.079C284.703,-17.079 295.739,-23.404 295.739,-31.197C295.739,-31.886 295.834,-84.13 295.834,-84.13L295.839,-84.13Z" style="fill:white;fill-rule:nonzero;stroke:rgb(32,32,30);stroke-width:3.81px;"/>
                <rect x="245.187" y="-84.13" width="50.649" height="45.386" style="fill:white;stroke:rgb(32,32,30);stroke-width:3.81px;"/>
                <path d="M245.187,-84.13L295.839,-38.748" style="fill:none;fill-rule:nonzero;stroke:rgb(32,32,30);stroke-width:3.81px;"/>
                <path d="M295.839,-84.13L245.187,-38.748" style="fill:none;fill-rule:nonzero;stroke:rgb(32,32,30);stroke-width:3.81px;"/>
                <path d="M335.92,93.609C316.214,83.885 294.794,78.772 271.334,78.772C247.873,78.772 225.439,84.224 205.728,93.946C225.439,103.67 247.493,109.27 270.95,109.27C294.42,109.301 316.222,103.355 335.917,93.634L335.92,93.609Z" style="fill:white;fill-rule:nonzero;stroke:rgb(32,32,30);stroke-width:3.81px;stroke-linejoin:round;"/>
                <path d="M345.767,60.26C346.898,59.271 348.019,58.258 349.119,57.191C372.936,34.018 378.392,0.992 361.304,-16.572C344.209,-34.139 311.051,-29.587 287.235,-6.415C280.12,0.505 274.66,8.308 270.934,16.312C267.21,8.308 261.747,0.505 254.635,-6.415C230.819,-29.587 197.653,-34.139 180.566,-16.572C163.473,0.992 168.928,34.02 192.748,57.191C193.851,58.261 194.977,59.278 196.116,60.268C216.68,52.545 242.675,47.931 270.952,47.931C299.204,47.931 325.19,52.555 345.734,60.263L345.767,60.26Z" style="fill:white;fill-rule:nonzero;stroke:rgb(32,32,30);stroke-width:3.81px;stroke-linejoin:bevel;"/>
                <path d="M270.953,16.341C274.68,8.334 280.139,0.533 287.255,-6.384C293.053,-12.031 299.412,-16.563 305.959,-19.947C295.102,-23.001 283.31,-24.677 270.972,-24.677C258.627,-24.677 246.823,-22.996 235.962,-19.937C242.5,-16.555 248.857,-12.026 254.654,-6.384C261.765,0.538 267.207,8.34 270.951,16.331L270.953,16.341Z" style="fill:white;fill-rule:nonzero;stroke:rgb(32,32,30);stroke-width:3.81px;"/>
                <path d="M345.484,60.26L345.472,60.243C324.918,52.53 298.938,47.923 270.686,47.923C242.41,47.923 216.416,52.538 195.853,60.26C195.853,60.26 205.717,67.986 207.144,73.692C208.57,79.395 209.181,87.573 205.754,93.931C225.462,84.209 247.899,78.757 271.359,78.757C294.371,78.757 316.525,84.218 335.946,93.593C332.812,87.315 332.806,79.238 334.194,73.692C335.61,68.029 345.489,60.29 345.489,60.29L345.484,60.26Z" style="fill:white;fill-rule:nonzero;stroke:rgb(32,32,30);stroke-width:3.81px;stroke-linejoin:bevel;"/>
                <path d="M205.735,93.955C225.442,84.232 247.88,78.78 271.34,78.78C294.352,78.78 316.502,84.241 335.926,93.617C334.593,90.935 333.192,84.085 333.416,80.264C313.894,72.59 292.901,68.394 271.029,68.394C248.905,68.394 227.689,72.677 207.981,80.513C208.233,87.592 207.226,91.147 205.748,93.915L205.735,93.955Z" style="fill:white;fill-rule:nonzero;stroke:rgb(32,32,30);stroke-width:3.81px;stroke-linejoin:bevel;"/>
                <path d="M261.326,58.435L271.079,63.312L280.8,58.435L271.079,53.559L261.326,58.435Z" style="fill-rule:nonzero;"/>
                <path d="M221.465,64.79L231.847,68.031L240.688,61.644L230.306,58.404L221.465,64.79Z" style="fill-rule:nonzero;"/>
                <path d="M320.661,64.79L310.279,68.031L301.439,61.644L311.821,58.404L320.661,64.79Z" style="fill-rule:nonzero;"/>
                <ellipse cx="270.953" cy="-23.958" rx="17.93" ry="13.239" style="fill:white;stroke:rgb(32,32,30);stroke-width:3.81px;"/>
                <path d="M613.72,-43.828C609.133,-46.508 603.24,-44.959 600.561,-40.366C598.26,-36.43 599.08,-31.548 602.247,-28.542C589.141,-12.655 565.218,16.331 559.445,23.362C557.749,22.605 555.992,21.886 554.164,21.215C554.683,15.823 558.471,-25.322 560.48,-47.206C564.846,-47.107 568.874,-49.998 570.014,-54.405C571.344,-59.553 568.256,-64.804 563.107,-66.135C557.967,-67.467 552.717,-64.376 551.383,-59.232C550.24,-54.823 552.357,-50.34 556.225,-48.311C546.747,-26.798 528.356,14.951 528.31,15.124C528.301,15.165 528.307,15.208 528.298,15.251C526.626,15.053 524.909,14.876 523.158,14.732C522.81,12.417 514.924,-35.98 510.813,-61.186C515.539,-62.292 519.056,-66.521 519.056,-71.585C519.056,-77.487 514.272,-82.278 508.367,-82.278C502.462,-82.278 497.676,-77.487 497.676,-71.585C497.676,-66.522 501.203,-62.293 505.925,-61.186C501.832,-36.093 493.995,11.976 493.583,14.691C491.755,14.838 489.967,15.012 488.222,15.218C488.21,15.156 488.213,15.104 488.195,15.049C488.152,14.875 469.757,-26.879 460.285,-48.389C464.147,-50.417 466.261,-54.898 465.121,-59.31C463.791,-64.454 458.537,-67.545 453.394,-66.213C448.251,-64.881 445.16,-59.631 446.493,-54.488C447.636,-50.074 451.658,-47.186 456.024,-47.288C458.033,-25.428 461.809,15.631 462.341,21.108C460.546,21.763 458.82,22.462 457.155,23.198C451.148,15.891 427.497,-12.775 414.484,-28.54C417.658,-31.546 418.475,-36.428 416.18,-40.364C413.504,-44.957 407.608,-46.506 403.018,-43.826C398.431,-41.149 396.879,-35.256 399.556,-30.663C401.857,-26.73 406.514,-25.039 410.69,-26.323C418.515,-5.943 443.774,59.65 444.74,60.556C462.151,53.47 482.172,49.159 508.115,49.159C534.045,49.159 554.06,53.465 571.474,60.55C572.433,59.642 598.025,-5.411 606.053,-26.323C610.231,-25.039 614.886,-26.73 617.184,-30.663C619.764,-35.253 618.222,-41.146 613.629,-43.823L613.72,-43.828Z" style="fill:white;fill-rule:nonzero;stroke:rgb(32,32,30);stroke-width:3.49px;"/>
            </g>
        </g>
    </g>
</svg>
