<?xml version="1.0" encoding="UTF-8" standalone="no"?>
<!DOCTYPE svg PUBLIC "-//W3C//DTD SVG 1.1//EN" "http://www.w3.org/Graphics/SVG/1.1/DTD/svg11.dtd">
<svg width="70px" height="70px" viewBox="0 0 243 221" version="1.1" xmlns="http://www.w3.org/2000/svg" xmlns:xlink="http://www.w3.org/1999/xlink" xml:space="preserve" xmlns:serif="http://www.serif.com/" style="fill-rule:evenodd;clip-rule:evenodd;">
    <g id="Artboard1" transform="matrix(1,0,0,1,-1200.94,-9.63276)">
        <rect x="1200.94" y="9.633" width="242.067" height="220.075" style="fill:none;"/>
        <g transform="matrix(1,0,0,1,567.67,103.633)">
            <path d="M703.1,-59.908C703.1,-59.908 706.59,-78.663 706.59,-81.28C706.59,-83.896 709.205,-84.333 711.823,-80.843C714.44,-77.355 726.217,-60.344 726.217,-60.344L703.093,-59.91L703.1,-59.908Z" style="fill:white;fill-rule:nonzero;stroke:rgb(32,32,30);stroke-width:3.49px;"/>
            <path d="M859.587,83.95C858.404,75.492 856.788,67.428 854.818,59.763L848.499,57.241L852.717,52.193C850.314,44.085 847.521,36.45 844.449,29.273L838.467,27.583L841.426,22.526C838.212,15.701 834.762,9.335 831.18,3.407L825.603,2.287L827.607,-2.317C823.588,-8.514 819.462,-14.174 815.366,-19.311L809.464,-19.957L811.04,-24.553C806.251,-30.179 801.584,-35.072 797.267,-39.252L791.365,-39.583L792.394,-43.812C781.865,-53.34 774.424,-57.976 774.424,-57.976L761.05,-53.904C761.05,-53.904 754.656,-57.394 749.421,-60.883C749.421,-60.883 745.931,-72.513 744.773,-78.91C743.605,-85.307 740.118,-82.4 738.954,-80.655C737.792,-78.91 725.724,-65.538 725.724,-65.538C725.724,-65.538 718.507,-66.524 713.364,-65.538C705.809,-64.08 702.319,-58.993 693.59,-50.707C687.234,-44.662 683.418,-39.364 681.239,-33.697C679.058,-28.027 681.673,-28.027 680.806,-22.793C679.927,-17.56 656.375,21.692 653.763,26.49C651.142,31.288 644.826,45.96 657.25,55.275C660.734,57.892 663.358,59.204 665.536,60.072C665.536,60.072 669.024,59.204 670.332,57.459C670.566,57.148 670.683,56.957 670.741,56.851C670.784,56.734 670.805,56.727 670.741,56.851C670.609,57.191 670.305,58.466 671.641,60.072C673.823,62.692 676.625,62.496 678.182,62.692C680.508,62.983 684.723,60.95 688.216,55.713C691.707,50.479 693.888,48.732 696.506,45.68C699.117,42.627 713.554,35.873 719.186,26.49C720.492,24.313 723.545,25.181 725.724,26.927C727.905,28.673 740.118,29.11 745.35,20.383C745.35,20.383 747.823,43.328 737.5,59.203C720.492,85.372 691.706,91.91 682.982,116.339L861.802,116.339C861.802,107.898 861.357,99.793 860.552,91.997L854.607,88.86L859.735,84.015L859.587,83.95Z" style="fill:white;fill-rule:nonzero;stroke:rgb(32,32,30);stroke-width:3.49px;"/>
            <path d="M767.438,-48.079C767.438,-48.079 843.614,8.916 843.614,111.843" style="fill:none;fill-rule:nonzero;stroke:rgb(32,32,30);stroke-width:2.68px;"/>
            <path d="M670.727,56.862C670.79,56.736 670.79,56.736 670.727,56.862Z" style="fill:none;fill-rule:nonzero;stroke:rgb(32,32,30);stroke-width:2.68px;"/>
            <path d="M751.739,-8.545C753.192,7.734 745.631,19.364 745.342,20.381C745.342,20.381 763.662,10.934 765.405,-1.572" style="fill:none;fill-rule:nonzero;stroke:rgb(32,32,30);stroke-width:2.68px;"/>
            <path d="M745.352,20.399C745.352,20.399 757.565,26.364 766.579,22.584" style="fill:none;fill-rule:nonzero;stroke:rgb(32,32,30);stroke-width:2.68px;"/>
            <path d="M670.318,57.46C670.318,57.46 678.46,46.991 680.791,42.194" style="fill:none;fill-rule:nonzero;stroke:rgb(32,32,30);stroke-width:2.68px;"/>
            <path d="M720.498,-39.789C720.498,-39.789 707.087,-39.726 702.617,-32.377C696.512,-22.344 703.486,-21.037 703.486,-21.037C703.486,-21.037 710.464,-18.854 715.263,-25.396C720.372,-32.363 716.135,-36.736 716.135,-36.736L720.477,-39.791L720.498,-39.789Z" style="fill:none;fill-rule:nonzero;stroke:rgb(32,32,30);stroke-width:2.68px;"/>
            <path d="M655.5,34.777C660.299,33.469 663.353,33.907 665.531,35.215C665.531,35.215 663.353,28.672 667.273,23C671.202,17.331 677.741,16.893 683.412,5.99" style="fill:none;fill-rule:nonzero;stroke:rgb(32,32,30);stroke-width:2.68px;"/>
            <path d="M782.854,-33.685L791.128,-38.917" style="fill:none;fill-rule:nonzero;stroke:rgb(32,32,30);stroke-width:2.68px;"/>
            <path d="M799.874,-14.932L808.148,-18.855" style="fill:none;fill-rule:nonzero;stroke:rgb(32,32,30);stroke-width:2.68px;"/>
            <path d="M815.132,6.839L824.728,2.907" style="fill:none;fill-rule:nonzero;stroke:rgb(32,32,30);stroke-width:2.68px;"/>
            <path d="M827.339,31.725L837.375,28.233" style="fill:none;fill-rule:nonzero;stroke:rgb(32,32,30);stroke-width:2.68px;"/>
            <path d="M836.935,60.952L847.411,57.9" style="fill:none;fill-rule:nonzero;stroke:rgb(32,32,30);stroke-width:2.68px;"/>
            <path d="M842.598,90.62L853.515,89.298" style="fill:none;fill-rule:nonzero;stroke:rgb(32,32,30);stroke-width:2.68px;"/>
        </g>
    </g>
</svg>
