<?xml version="1.0" encoding="UTF-8" standalone="no"?>
<!DOCTYPE svg PUBLIC "-//W3C//DTD SVG 1.1//EN" "http://www.w3.org/Graphics/SVG/1.1/DTD/svg11.dtd">
<svg width="70px" height="70px" viewBox="0 0 160 231" version="1.1" xmlns="http://www.w3.org/2000/svg" xmlns:xlink="http://www.w3.org/1999/xlink" xml:space="preserve" xmlns:serif="http://www.serif.com/" style="fill-rule:evenodd;clip-rule:evenodd;stroke-linejoin:round;">
    <g id="Artboard1" transform="matrix(1,0,0,1,-1488.96,-20.0333)">
        <rect x="1488.96" y="20.033" width="159.573" height="230.124" style="fill:none;"/>
        <g transform="matrix(1,0,0,1,567.688,103.033)">
            <path d="M1026.33,99.366C1014.53,75.942 1015.72,34.223 1016.71,18.061C1035.37,16.782 1048.79,13.247 1048.79,9.082C1048.79,4.995 1035.87,1.511 1017.75,0.176C1029.32,-5.786 1037.24,-17.843 1037.24,-31.757C1037.24,-51.589 1021.17,-67.666 1001.34,-67.666C981.5,-67.666 965.429,-51.589 965.429,-31.757C965.429,-17.844 973.343,-5.786 984.917,0.176C966.802,1.511 953.88,4.995 953.88,9.082C953.88,13.247 967.306,16.782 985.961,18.061C986.95,34.224 988.142,75.943 976.344,99.366C953.222,104.014 936.996,114.924 936.996,127.636L1065.67,127.636C1065.67,114.926 1049.47,104.009 1026.35,99.353L1026.33,99.366Z" style="fill:white;fill-rule:nonzero;stroke:black;stroke-width:3.49px;"/>
        </g>
    </g>
</svg>
