<?xml version="1.0" encoding="UTF-8" standalone="no"?>
<!DOCTYPE svg PUBLIC "-//W3C//DTD SVG 1.1//EN" "http://www.w3.org/Graphics/SVG/1.1/DTD/svg11.dtd">
<svg width="70px" height="70px" viewBox="0 0 231 228" version="1.1" xmlns="http://www.w3.org/2000/svg" xmlns:xlink="http://www.w3.org/1999/xlink" xml:space="preserve" xmlns:serif="http://www.serif.com/" style="fill-rule:evenodd;clip-rule:evenodd;stroke-linejoin:bevel;">
    <g id="Artboard1" transform="matrix(1,0,0,1,-958.883,-3.49662)">
        <rect x="958.883" y="3.497" width="230.885" height="227.534" style="fill:none;"/>
        <clipPath id="_clip1">
            <rect x="958.883" y="3.497" width="230.885" height="227.534"/>
        </clipPath>
        <g clip-path="url(#_clip1)">
            <g transform="matrix(1,0,0,1,567.61,103.497)">
                <path d="M572.569,100.593C553.483,91.669 532.566,86.984 509.474,86.984C486.382,86.984 463.997,92.1 444.284,101.025C463.369,109.941 485.019,114.961 508.115,114.961C531.239,114.992 552.884,109.518 572.578,100.615L572.569,100.593Z" style="fill:white;fill-rule:nonzero;stroke:rgb(32,32,30);stroke-width:3.49px;"/>
                <path d="M571.153,60.543L571.141,60.522C553.985,53.449 534.023,49.146 508.106,49.146C482.157,49.146 462.094,53.452 444.435,60.543C444.435,60.543 446.361,76.914 446.441,82.328C446.536,88.425 444.831,100.919 444.831,100.919C464.543,91.994 486.391,86.977 509.483,86.977C532.133,86.977 555.152,91.625 572.578,100.586C569.715,94.86 571.162,60.567 571.162,60.567L571.153,60.543Z" style="fill:white;fill-rule:nonzero;stroke:rgb(32,32,30);stroke-width:3.49px;"/>
                <path d="M444.901,100.813C463.455,91.989 486.391,86.975 509.484,86.975C532.133,86.975 551.147,90.169 572.578,100.584C571.715,98.177 571.137,90.699 570.95,87.986C551.981,80.94 531.061,76.94 509.529,76.94C487.758,76.94 465.855,81.158 446.204,88.349C445.795,91.149 444.914,100.776 444.914,100.776L444.901,100.813Z" style="fill:white;fill-rule:nonzero;stroke:rgb(32,32,30);stroke-width:3.49px;"/>
                <path d="M613.72,-43.828C609.133,-46.508 603.24,-44.959 600.561,-40.366C598.26,-36.43 599.08,-31.548 602.247,-28.542C589.141,-12.655 565.218,16.331 559.445,23.362C557.749,22.605 555.992,21.886 554.164,21.215C554.683,15.823 558.471,-25.322 560.48,-47.206C564.846,-47.107 568.874,-49.998 570.014,-54.405C571.344,-59.553 568.256,-64.804 563.107,-66.135C557.967,-67.467 552.717,-64.376 551.383,-59.232C550.24,-54.823 552.357,-50.34 556.225,-48.311C546.747,-26.798 528.356,14.951 528.31,15.124C528.301,15.165 528.307,15.208 528.298,15.251C526.626,15.053 524.909,14.876 523.158,14.732C522.81,12.417 514.924,-35.98 510.813,-61.186C515.539,-62.292 519.056,-66.521 519.056,-71.585C519.056,-77.487 514.272,-82.278 508.367,-82.278C502.462,-82.278 497.676,-77.487 497.676,-71.585C497.676,-66.522 501.203,-62.293 505.925,-61.186C501.832,-36.093 493.995,11.976 493.583,14.691C491.755,14.838 489.967,15.012 488.222,15.218C488.21,15.156 488.213,15.104 488.195,15.049C488.152,14.875 469.757,-26.879 460.285,-48.389C464.147,-50.417 466.261,-54.898 465.121,-59.31C463.791,-64.454 458.537,-67.545 453.394,-66.213C448.251,-64.881 445.16,-59.631 446.493,-54.488C447.636,-50.074 451.658,-47.186 456.024,-47.288C458.033,-25.428 461.809,15.631 462.341,21.108C460.546,21.763 458.82,22.462 457.155,23.198C451.148,15.891 427.497,-12.775 414.484,-28.54C417.658,-31.546 418.475,-36.428 416.18,-40.364C413.504,-44.957 407.608,-46.506 403.018,-43.826C398.431,-41.149 396.879,-35.256 399.556,-30.663C401.857,-26.73 406.514,-25.039 410.69,-26.323C418.515,-5.943 443.774,59.65 444.74,60.556C462.151,53.47 482.172,49.159 508.115,49.159C534.045,49.159 554.06,53.465 571.474,60.55C572.433,59.642 598.025,-5.411 606.053,-26.323C610.231,-25.039 614.886,-26.73 617.184,-30.663C619.764,-35.253 618.222,-41.146 613.629,-43.823L613.72,-43.828Z" style="fill:white;fill-rule:nonzero;stroke:rgb(32,32,30);stroke-width:3.49px;stroke-linejoin:miter;"/>
                <path d="M499.517,63.658L508.451,68.125L517.418,63.658L508.451,59.19L499.517,63.658Z" style="fill-rule:nonzero;"/>
                <path d="M462.959,69.447L472.492,72.404L480.609,66.552L471.076,63.595L462.959,69.447Z" style="fill-rule:nonzero;"/>
                <path d="M553.975,69.478L544.443,72.467L536.326,66.615L545.859,63.626L553.975,69.478Z" style="fill-rule:nonzero;"/>
            </g>
        </g>
    </g>
</svg>
